<svg xmlns="http://www.w3.org/2000/svg" width="256" height="256"><path fill-opacity=".016" d="M0 128.004v128.004l128.25-.254 128.25-.254.254-127.75L257.008 0H0v128.004m.485.496c0 70.4.119 99.053.265 63.672.146-35.38.146-92.98 0-128C.604 29.153.485 58.1.485 128.5" fill="#ff69b4" fill-rule="evenodd"/><path fill-opacity=".167" d="M110 21.563C85.993 26.748 68.086 36.06 52.426 51.5 31.849 71.789 20 99.927 20 128.5c0 12.53 1.51 21.257 5.993 34.638 11.756 35.09 40.108 61.154 76.591 70.408 8.309 2.108 11.965 2.454 25.935 2.454 17.507 0 26.79-1.666 41.338-7.421 24.514-9.696 47.427-32.215 57.797-56.805C234.182 156.298 236 146.869 236 128.5c0-14.023-.338-17.582-2.438-25.664-8.033-30.918-26.821-55.053-54.619-70.164-7.682-4.176-22.553-9.248-32.943-11.236-9.361-1.792-27.413-1.728-36 .127m-2 13.315C73.372 42.433 45.296 69.129 35.828 103.5c-1.871 6.794-2.203 10.564-2.203 25s.332 18.206 2.203 25c8.989 32.634 35.391 59.007 67.672 67.597 5.614 1.494 12.176 2.271 22 2.607 15.676.536 26.363-1.185 39.17-6.309 6.107-2.443 21.753-11.314 21.093-11.959-.144-.142-3.638.926-7.763 2.373-6.876 2.412-8.832 2.633-23.5 2.661-18.222.034-22.028-.785-37-7.966-15.83-7.592-28.462-20.078-36.959-36.53-6.888-13.335-8.942-21.945-8.942-37.474 0-15.446 1.955-23.706 8.823-37.281 10.939-21.618 30.675-37.294 54.56-43.334 11.952-3.022 32.022-2.381 43.018 1.375 4.125 1.409 7.638 2.426 7.807 2.26.53-.52-14.068-9.01-19.352-11.256-11.699-4.971-19.353-6.474-34.955-6.865-11.945-.299-16.731.002-23.5 1.479m32.5 24.535c-15.471 3.575-26.067 9.376-36.606 20.039-8.191 8.288-13.196 16.676-17.014 28.518-2.667 8.271-3.074 10.984-3.074 20.53 0 9.552.405 12.251 3.073 20.5 3.868 11.96 8.789 20.291 16.774 28.394 8.576 8.704 16.058 13.418 27.847 17.548 9.393 3.29 10.759 3.502 22.5 3.485 11.477-.016 13.283-.285 22.068-3.288 8.237-2.816 22.898-10.592 21.8-11.562-.203-.179-3.93.375-8.285 1.23-18.037 3.543-36.505-2.433-50.083-16.206-11.626-11.794-16.773-24.098-16.773-40.101s5.147-28.307 16.773-40.101c13.578-13.773 32.046-19.749 50.083-16.206 4.355.855 8.082 1.409 8.285 1.23 1.125-.995-13.612-8.75-21.8-11.471-11.442-3.803-25.698-4.821-35.568-2.539m32.207 24.681c-13.79 2.011-27.359 12.264-33.881 25.604-3.208 6.561-3.326 7.227-3.315 18.802.01 10.816.266 12.543 2.601 17.5 7.09 15.057 19.987 24.754 35.888 26.984 11.014 1.545 24.362-2.149 33.299-9.216l4.133-3.268-7.514-.614c-9.428-.77-15.146-3.272-21.108-9.234-5.868-5.868-8.81-13.265-8.81-22.152 0-17.876 13.439-31.424 31.288-31.541l6.212-.04-3.5-3.076c-8.655-7.604-22.938-11.55-35.293-9.749" fill="#ff69b4" fill-rule="evenodd"/><path fill-opacity=".541" d="M119.898 20.435c-.313.313-4.805 1.293-9.983 2.179-18.903 3.232-36.753 11.576-51.348 24.002-9.093 7.742-14.969 14.622-21.861 25.6C30.06 82.803 26.886 90.532 24.067 103a22988.72 22988.72 0 0 0-3.107 13.764c-1.234 5.482-1.234 17.99 0 23.472.528 2.345 1.905 8.447 3.06 13.559 9.423 41.691 43.681 73.514 86.926 80.745 34.065 5.696 68.958-5.529 93.511-30.083 13.737-13.737 23.22-30.205 28.193-48.957 2.372-8.948 2.651-11.788 2.651-27s-.279-18.052-2.651-27c-4.942-18.638-14.378-35.081-28.027-48.838-16.477-16.609-36.492-26.738-60.743-30.74-8.558-1.412-23.152-2.317-23.982-1.487m-7.734 12.626C90.647 36.88 68.94 49.595 54.223 67c-7.499 8.869-16.109 25.632-19.261 37.5-2.733 10.288-3.654 27.91-1.996 38.186 5.877 36.437 30.979 65.916 66.184 77.727 9.764 3.276 18.286 4.57 30.142 4.579 16.967.014 35.614-5.373 50.326-14.536 9.497-5.915 11.494-8.257 4.796-5.625-8.826 3.469-20.431 5.536-30.914 5.506-45.183-.13-81.486-36.589-81.486-81.837 0-45.248 36.303-81.707 81.486-81.837 10.443-.03 22.084 2.035 30.816 5.467 6.295 2.474 5.075.73-3.26-4.662-8.297-5.368-16.03-8.842-27.056-12.156-6.981-2.099-11.001-2.613-22.5-2.877-7.7-.176-16.401.105-19.336.626m31.041 25.03C121.349 61.426 100.987 76.517 90.706 97c-10.292 20.508-10.311 42.323-.055 63 3.964 7.992 6.151 10.928 13.78 18.501 14.683 14.572 29.598 20.844 49.569 20.844 12.706 0 20.469-1.823 31.699-7.443 7.724-3.865 18.341-11.875 13.801-10.412-12.172 3.923-22.706 4.399-33.915 1.532-10.835-2.771-16.91-6.319-25.688-15.002C128.48 156.728 123 143.911 123 128.5c0-15.411 5.48-28.228 16.897-39.52 8.778-8.683 14.853-12.231 25.688-15.002 11.209-2.867 21.743-2.391 33.915 1.532 1.295.417.661-.581-1.801-2.832-4.737-4.335-18.321-11.201-25.963-13.125-7.793-1.962-20.867-2.632-28.531-1.462m24.687 26.358c-22.174 6.116-36.808 28.739-33.092 51.162 5.85 35.302 47.791 50.511 74.7 27.088l4-3.482-7.5.096c-9.155.118-16.572-2.885-22.999-9.312-6.215-6.215-8.417-11.84-8.417-21.501 0-9.661 2.202-15.286 8.417-21.501 6.427-6.427 13.844-9.43 22.999-9.312l7.5.096-4-3.482c-2.2-1.915-5.8-4.543-8-5.839-8.57-5.052-23.413-6.824-33.608-4.013" fill="#ff69b4" fill-rule="evenodd"/><path fill-opacity=".187" d="M127 20.855c0 .47-4.388 1.111-9.75 1.424-12.201.713-24.108 4.125-37.022 10.609-21.47 10.777-36.723 26.179-47.805 48.27-5.98 11.918-9.249 22.773-10.127 33.624-.324 4.005-.973 7.519-1.443 7.809-1.112.687-1.112 11.131 0 11.818.47.29 1.119 3.804 1.443 7.809.878 10.852 4.148 21.706 10.127 33.624 11.047 22.02 25.693 36.868 47.324 47.979 17.016 8.741 34.972 12.422 55.412 11.362l6.659-.346.341-5.026.341-5.026-7.5.65c-8.267.717-22.214-.576-31.5-2.92-9.383-2.368-27.254-11.676-35.948-18.723-4.27-3.46-10.666-9.892-14.213-14.292-7.299-9.054-16.369-26.56-18.849-36.379-3.529-13.971-3.537-35.245-.019-49.17 2.538-10.045 11.505-27.478 18.685-36.325 3.489-4.299 9.884-10.708 14.21-14.243C76.159 46.2 93.947 36.897 103.5 34.485c9.292-2.345 23.234-3.636 31.516-2.919l7.516.651-.363-4.858c-.421-5.639 1.428-5.074 2.1.641.349 2.976.435 2.789.571-1.25L145 22h-7.441c-4.093 0-7.719-.45-8.059-1-.755-1.222-2.5-1.323-2.5-.145m5 29.076c-8.736 2.433-10.983 3.391-19.345 8.247-9.159 5.318-21.204 16.99-27.568 26.712-2.84 4.34-6.4 11.693-8.284 17.11-3.235 9.305-3.303 9.849-3.303 26.5 0 16.656.067 17.192 3.306 26.5 4.099 11.778 9.425 20.208 19.161 30.332 11.317 11.766 27.506 20.714 41.868 23.14l4.165.704v-9.977l-5.25-1.237c-8.59-2.024-14.625-4.756-22.44-10.158-13.066-9.033-22.56-21.266-27.75-35.76-2.907-8.116-3.058-9.295-3.025-23.544.032-13.623.286-15.749 2.765-23.157 7.382-22.068 27.998-41.016 50.359-46.283l5.158-1.216.342-4.922c.401-5.786.146-5.861-10.159-2.991M144.3 53c0 3.025.187 4.263.416 2.75.229-1.513.229-3.987 0-5.5s-.416-.275-.416 2.75m-3.976 36.25c-.436.688-.81 1.7-.831 2.25-.021.55-.713.891-1.537.759-2.085-.336-7.772 8.688-10.834 17.189-2.185 6.071-2.539 8.721-2.539 19.052s.354 12.981 2.539 19.052c2.948 8.187 8.831 17.68 10.548 17.021.651-.25 1.779.307 2.507 1.236 1.211 1.548 1.154 1.568-.677.235-1.1-.802-.449.211 1.446 2.25 3.736 4.018 5.613 5.121 2.478 1.456-1.448-1.693-1.848-3.444-1.616-7.074.275-4.307.481-4.683 1.924-3.5 1.294 1.059 1.251.761-.211-1.486-1.182-1.815-2.079-2.405-2.536-1.666-.483.782-.905.626-1.334-.492-.367-.956-.217-1.382.36-1.025.544.336.989.414.989.173 0-.476-4.437-10.698-6.33-14.581-.643-1.321-1.17-6.496-1.17-11.5 0-9.432.287-10.491 6.022-22.194 2.213-4.516 2.615-6.043 1.5-5.705-1.357.413-1.358.319-.01-.868 1.12-.987 1.368-2.56.956-6.067-.338-2.87-.145-4.907.488-5.171.627-.262.568-.468-.147-.515-.655-.043-1.548.484-1.985 1.171m3.948 2.75c0 2.475.195 3.487.434 2.25.238-1.237.238-3.263 0-4.5-.239-1.237-.434-.225-.434 2.25m0 73c0 2.475.195 3.488.434 2.25.238-1.238.238-3.262 0-4.5-.239-1.238-.434-.225-.434 2.25m.028 39c0 3.025.187 4.262.416 2.75.229-1.512.229-3.988 0-5.5s-.416-.275-.416 2.75m-.316 25.203c-.266 3.137-.119 5.337.326 4.89.446-.448.664-3.014.485-5.703l-.327-4.89-.484 5.703" fill="#ff69b4" fill-rule="evenodd"/></svg>