<?xml version="1.0" standalone="no"?>
<!DOCTYPE svg PUBLIC "-//W3C//DTD SVG 20010904//EN"
 "http://www.w3.org/TR/2001/REC-SVG-20010904/DTD/svg10.dtd">
<svg version="1"
  xmlns="http://www.w3.org/2000/svg" width="200pt" height="200pt" viewBox="0 0 200 200" preserveAspectRatio="xMidYMid meet">
  <g transform="matrix(0,0.1,0.1,0,0.1,0.5)" stroke="none">
    <path fill="black" d="M 848 1995 c -1 -2 -16 -5 -33 -8 c -16 -3 -45 -10 -62 -16 c -18 -5 -33 -8 -33 -6 c 0 11 -229 -94 -253 -116 c -9 -9 -30 -22 -45 -30 c -35 -18 -223 -206 -241 -241 c -8 -15 -21 -36 -30 -45 c -22 -24 -127 -253 -116 -253 c 2 0 -1 -15 -6 -32 c -6 -18 -13 -42 -16 -53 c -3 -11 -7 -90 -9 -175 c -3 -127 0 -169 15 -228 c 11 -39 17 -72 16 -72 c -11 0 95 -229 116 -253 c 9 -9 22 -30 30 -45 c 18 -35 206 -223 241 -241 c 15 -8 37 -22 47 -33 c 11 -10 22 -18 25 -18 c 3 0 41 -17 84 -38 c 44 -20 85 -39 93 -41 c 8 -2 48 -13 89 -24 c 109 -31 371 -31 480 0 c 41 11 81 22 89 24 c 42 12 186 88 251 134 c 189 133 334 342 391 566 c 21 80 24 117 24 254 c -1 134 -5 174 -24 245 c -20 73 -95 255 -111 270 c -3 3 -26 34 -52 70 c -50 71 -186 206 -230 229 c -15 8 -36 21 -45 30 c -24 21 -253 127 -253 116 c 0 -1 -32 5 -70 15 c -52 13 -108 18 -214 18 c -80 0 -146 -1 -148 -3 z m 322 -106 c 82 -17 91 -19 157 -44 c 88 -33 160 -76 248 -145 c 70 -56 176 -178 199 -230 c 6 -14 16 -31 23 -37 c 14 -15 70 -158 77 -196 c 2 -15 7 -30 9 -34 c 8 -13 22 -143 22 -203 c 0 -60 -14 -190 -22 -203 c -2 -4 -7 -19 -9 -34 c -8 -42 -64 -182 -80 -197 c -8 -8 -14 -18 -14 -23 c 0 -14 -74 -116 -77 -106 c -2 6 9 46 24 89 c 24 69 27 97 30 219 c 2 126 0 149 -23 225 c -22 76 -56 156 -76 185 c -111 153 -208 238 -342 300 c -43 20 -85 38 -95 40 c -9 2 -38 9 -66 15 c -27 7 -97 12 -155 12 c -58 0 -127 -5 -155 -12 c -27 -6 -57 -13 -66 -15 c -32 -7 -173 -75 -205 -100 c -18 -14 -36 -25 -39 -25 c -12 0 -130 -126 -160 -170 c -16 -25 -32 -47 -35 -50 c -14 -14 -67 -146 -87 -215 c -3 -11 -7 -85 -9 -165 c -3 -137 -1 -150 26 -235 c 17 -49 35 -99 40 -110 c 6 -11 -5 -2 -24 20 c -20 22 -36 46 -36 53 c 0 6 -4 12 -8 12 c -7 0 -63 103 -84 155 c -19 48 -37 105 -32 105 c 2 0 0 8 -5 18 c -5 9 -14 61 -21 115 c -16 139 5 305 56 427 c 29 68 78 160 86 160 c 4 0 8 5 8 11 c 0 37 212 249 249 249 c 6 0 11 4 11 8 c 0 8 92 57 160 86 c 143 59 344 78 500 45 z m -5 -480 c 22 -6 54 -17 70 -24 c 17 -7 45 -18 63 -25 c 17 -7 32 -16 32 -21 c 0 -5 6 -9 13 -9 c 18 0 62 -36 137 -112 c 93 -93 155 -214 178 -350 c 11 -64 6 -207 -9 -258 c -7 -25 -13 -50 -15 -57 c -9 -49 -122 -238 -153 -257 c -5 -4 0 18 11 47 c 28 73 29 81 30 182 c 0 74 -5 106 -27 170 c -15 44 -30 82 -34 85 c -3 3 -20 25 -36 50 c -17 24 -45 58 -64 75 c -19 16 -40 36 -47 43 c -7 6 -17 12 -23 12 c -6 0 -11 5 -11 10 c 0 6 -4 10 -9 10 c -5 0 -30 10 -57 22 c -59 26 -52 24 -142 39 c -53 9 -90 10 -140 2 c -71 -11 -191 -55 -225 -82 c -52 -42 -102 -87 -106 -95 c -2 -5 -12 -17 -22 -27 c -11 -11 -19 -21 -19 -24 c 0 -3 -10 -22 -23 -43 c -32 -51 -58 -149 -61 -235 c -2 -60 3 -100 24 -175 c 4 -12 20 -54 26 -66 c 6 -11 -24 21 -64 71 c -26 32 -80 139 -97 193 c -24 76 -29 111 -29 200 c 0 65 7 128 17 167 c 18 70 66 174 100 216 c 34 43 133 147 141 147 c 4 0 16 9 28 20 c 12 11 28 20 35 20 c 7 0 13 4 13 9 c 0 5 15 14 33 21 c 17 7 46 18 62 25 c 28 13 88 29 145 39 c 40 7 211 -3 255 -15 z m -20 -483 c 76 -34 100 -50 151 -99 c 94 -89 142 -215 130 -339 c -6 -71 -41 -178 -57 -178 c -5 0 -9 -7 -9 -15 c 0 -8 -4 -15 -10 -15 c -5 0 -10 -6 -10 -13 c 0 -7 -15 -28 -34 -46 l -34 -33 l 9 43 c 39 174 -117 351 -296 336 c -72 -6 -82 -9 -116 -28 c -111 -61 -176 -194 -150 -309 l 10 -45 l -44 48 c -46 50 -90 130 -100 182 c -14 67 -16 143 -5 185 c 6 25 12 52 14 60 c 11 44 70 135 110 169 c 10 9 26 23 35 32 c 28 26 67 47 127 69 c 74 26 216 24 279 -4 z"/>
  </g>
</svg>
