<?xml version="1.0" standalone="no"?>
<!DOCTYPE svg PUBLIC "-//W3C//DTD SVG 20010904//EN"
 "http://www.w3.org/TR/2001/REC-SVG-20010904/DTD/svg10.dtd">
<svg version="1.0"
  xmlns="http://www.w3.org/2000/svg" width="200.000000pt" height="200.000000pt" viewBox="0 0 200.000000 200.000000" preserveAspectRatio="xMidYMid meet">
  <g transform="translate(0.000000,200.000000) scale(0.100000,-0.100000)" stroke="none">
    <path fill="white" d="M848 1995 c-1 -2 -16 -5 -33 -8 -16 -3 -45 -10 -62 -16 -18 -5 -33
-8 -33 -6 0 11 -229 -94 -253 -116 -9 -9 -30 -22 -45 -30 -35 -18 -223 -206
-241 -241 -8 -15 -21 -36 -30 -45 -22 -24 -127 -253 -116 -253 2 0 -1 -15 -6
-32 -6 -18 -13 -42 -16 -53 -3 -11 -7 -90 -9 -175 -3 -127 0 -169 15 -228 11
-39 17 -72 16 -72 -11 0 95 -229 116 -253 9 -9 22 -30 30 -45 18 -35 206 -223
241 -241 15 -8 37 -22 47 -33 11 -10 22 -18 25 -18 3 0 41 -17 84 -38 44 -20
85 -39 93 -41 8 -2 48 -13 89 -24 109 -31 371 -31 480 0 41 11 81 22 89 24 42
12 186 88 251 134 189 133 334 342 391 566 21 80 24 117 24 254 -1 134 -5 174
-24 245 -20 73 -95 255 -111 270 -3 3 -26 34 -52 70 -50 71 -186 206 -230 229
-15 8 -36 21 -45 30 -24 21 -253 127 -253 116 0 -1 -32 5 -70 15 -52 13 -108
18 -214 18 -80 0 -146 -1 -148 -3z m322 -106 c82 -17 91 -19 157 -44 88 -33
160 -76 248 -145 70 -56 176 -178 199 -230 6 -14 16 -31 23 -37 14 -15 70
-158 77 -196 2 -15 7 -30 9 -34 8 -13 22 -143 22 -203 0 -60 -14 -190 -22
-203 -2 -4 -7 -19 -9 -34 -8 -42 -64 -182 -80 -197 -8 -8 -14 -18 -14 -23 0
-14 -74 -116 -77 -106 -2 6 9 46 24 89 24 69 27 97 30 219 2 126 0 149 -23
225 -22 76 -56 156 -76 185 -111 153 -208 238 -342 300 -43 20 -85 38 -95 40
-9 2 -38 9 -66 15 -27 7 -97 12 -155 12 -58 0 -127 -5 -155 -12 -27 -6 -57
-13 -66 -15 -32 -7 -173 -75 -205 -100 -18 -14 -36 -25 -39 -25 -12 0 -130
-126 -160 -170 -16 -25 -32 -47 -35 -50 -14 -14 -67 -146 -87 -215 -3 -11 -7
-85 -9 -165 -3 -137 -1 -150 26 -235 17 -49 35 -99 40 -110 6 -11 -5 -2 -24
20 -20 22 -36 46 -36 53 0 6 -4 12 -8 12 -7 0 -63 103 -84 155 -19 48 -37 105
-32 105 2 0 0 8 -5 18 -5 9 -14 61 -21 115 -16 139 5 305 56 427 29 68 78 160
86 160 4 0 8 5 8 11 0 37 212 249 249 249 6 0 11 4 11 8 0 8 92 57 160 86 143
59 344 78 500 45z m-5 -480 c22 -6 54 -17 70 -24 17 -7 45 -18 63 -25 17 -7
32 -16 32 -21 0 -5 6 -9 13 -9 18 0 62 -36 137 -112 93 -93 155 -214 178 -350
11 -64 6 -207 -9 -258 -7 -25 -13 -50 -15 -57 -9 -49 -122 -238 -153 -257 -5
-4 0 18 11 47 28 73 29 81 30 182 0 74 -5 106 -27 170 -15 44 -30 82 -34 85
-3 3 -20 25 -36 50 -17 24 -45 58 -64 75 -19 16 -40 36 -47 43 -7 6 -17 12
-23 12 -6 0 -11 5 -11 10 0 6 -4 10 -9 10 -5 0 -30 10 -57 22 -59 26 -52 24
-142 39 -53 9 -90 10 -140 2 -71 -11 -191 -55 -225 -82 -52 -42 -102 -87 -106
-95 -2 -5 -12 -17 -22 -27 -11 -11 -19 -21 -19 -24 0 -3 -10 -22 -23 -43 -32
-51 -58 -149 -61 -235 -2 -60 3 -100 24 -175 4 -12 20 -54 26 -66 6 -11 -24
21 -64 71 -26 32 -80 139 -97 193 -24 76 -29 111 -29 200 0 65 7 128 17 167
18 70 66 174 100 216 34 43 133 147 141 147 4 0 16 9 28 20 12 11 28 20 35 20
7 0 13 4 13 9 0 5 15 14 33 21 17 7 46 18 62 25 28 13 88 29 145 39 40 7 211
-3 255 -15z m-20 -483 c76 -34 100 -50 151 -99 94 -89 142 -215 130 -339 -6
-71 -41 -178 -57 -178 -5 0 -9 -7 -9 -15 0 -8 -4 -15 -10 -15 -5 0 -10 -6 -10
-13 0 -7 -15 -28 -34 -46 l-34 -33 9 43 c39 174 -117 351 -296 336 -72 -6 -82
-9 -116 -28 -111 -61 -176 -194 -150 -309 l10 -45 -44 48 c-46 50 -90 130
-100 182 -14 67 -16 143 -5 185 6 25 12 52 14 60 11 44 70 135 110 169 10 9
26 23 35 32 28 26 67 47 127 69 74 26 216 24 279 -4z"/>
  </g>
</svg>
