<?xml version="1.0" encoding="UTF-8" standalone="no"?>
<!DOCTYPE svg PUBLIC "-//W3C//DTD SVG 1.1//EN" "http://www.w3.org/Graphics/SVG/1.1/DTD/svg11.dtd">
<svg width="100%" height="100%" viewBox="0 0 200 200" version="1.1" xmlns="http://www.w3.org/2000/svg" xmlns:xlink="http://www.w3.org/1999/xlink" xml:space="preserve" xmlns:serif="http://www.serif.com/" style="fill-rule:evenodd;clip-rule:evenodd;stroke-linejoin:round;stroke-miterlimit:2;">
    <g transform="matrix(0.126183,0,0,0.126183,-300,-26.183)">
        <path d="M3170,207.5C2732.61,207.5 2377.5,562.607 2377.5,1000C2377.5,1437.39 2732.61,1792.5 3170,1792.5C3607.39,1792.5 3962.5,1437.39 3962.5,1000C3962.5,562.607 3607.39,207.5 3170,207.5ZM3621.87,455.752C3499.26,353.819 3341.73,292.5 3170,292.5C2779.52,292.5 2462.5,609.52 2462.5,1000C2462.5,1390.48 2779.52,1707.5 3170,1707.5C3341.73,1707.5 3499.26,1646.18 3621.87,1544.25C3541.97,1583.17 3452.26,1605 3357.5,1605C3023.59,1605 2752.5,1333.91 2752.5,1000C2752.5,666.091 3023.59,395 3357.5,395C3452.26,395 3541.97,416.834 3621.87,455.752ZM3707.09,615.182C3614.72,531.208 3492.04,480 3357.5,480C3070.5,480 2837.5,713.004 2837.5,1000C2837.5,1287 3070.5,1520 3357.5,1520C3492.04,1520 3614.72,1468.79 3707.09,1384.82C3657.24,1405.86 3602.47,1417.5 3545,1417.5C3314.58,1417.5 3127.5,1230.42 3127.5,1000C3127.5,769.575 3314.58,582.5 3545,582.5C3602.47,582.5 3657.24,594.136 3707.09,615.182ZM3792.34,777.874C3731.44,710.128 3643.16,667.5 3545,667.5C3361.49,667.5 3212.5,816.488 3212.5,1000C3212.5,1183.51 3361.49,1332.5 3545,1332.5C3643.16,1332.5 3731.44,1289.87 3792.34,1222.13C3773.25,1227.26 3753.19,1230 3732.5,1230C3605.56,1230 3502.5,1126.94 3502.5,1000C3502.5,873.06 3605.56,770 3732.5,770C3753.19,770 3773.25,772.738 3792.34,777.874Z" style="fill:url(#_Linear1);"/>
    </g>
    <defs>
        <linearGradient id="_Linear1" x1="0" y1="0" x2="1" y2="0" gradientUnits="userSpaceOnUse" gradientTransform="matrix(-1359.58,-2.07801e-05,1.39361e-05,-911.797,3737.08,1000)"><stop offset="0" style="stop-color:rgb(227,61,117);stop-opacity:1"/><stop offset="1" style="stop-color:rgb(102,44,145);stop-opacity:1"/></linearGradient>
    </defs>
</svg>
